<svg width="206" height="118" viewBox="0 0 206 118" fill="none" xmlns="http://www.w3.org/2000/svg">
<path d="M4.51224 69.9097V17.9936H15.4886V40.8843H16.1731L34.8558 17.9936H48.0122L28.7465 41.2392L48.2404 69.9097H35.1093L20.8881 48.5653L15.4886 55.1562V69.9097H4.51224ZM50.6866 17.9936H62.9812L74.8195 40.352H75.3265L87.1648 17.9936H99.4593L80.5232 51.5565V69.9097H69.6228V51.5565L50.6866 17.9936ZM105.455 69.9097V17.9936H116.431V60.8598H138.688V69.9097H105.455ZM156.933 17.9936V69.9097H145.957V17.9936H156.933ZM165.964 69.9097V17.9936H200.947V27.0434H176.941V39.414H199.147V48.4639H176.941V60.8598H201.048V69.9097H165.964Z" fill="white"/>
<path d="M30.5025 111.571H33.672V107.117L35.7493 104.461L39.861 111.571H43.3089L37.6124 101.956L42.4737 95.7239H38.983L33.7148 102.598H33.672V95.7239H30.5025V111.571ZM47.1705 111.571H50.3186V105.789L55.0942 95.7239H51.7963L50.2329 99.6001C49.7618 100.778 49.2907 101.892 48.7981 103.112H48.7124C48.2413 101.892 47.813 100.778 47.3419 99.6001L45.7571 95.7239H42.3949L47.1705 105.789V111.571ZM56.9162 111.571H66.5317V108.916H60.0857V95.7239H56.9162V111.571ZM69.297 111.571H72.4665V95.7239H69.297V111.571ZM76.3657 111.571H86.3239V108.916H79.5352V104.697H85.0818V102.02H79.5352V98.358H86.0883V95.7239H76.3657V111.571ZM97.841 111.871C101.225 111.871 102.745 109.451 102.745 106.474V95.7239H99.5757V106.217C99.5757 108.402 98.8475 109.13 97.4341 109.13C96.5347 109.13 95.6995 108.637 95.0998 107.481L92.9155 109.109C93.9862 110.95 95.5282 111.871 97.841 111.871ZM106.565 111.571H116.523V108.916H109.734V104.697H115.281V102.02H109.734V98.358H116.287V95.7239H106.565V111.571ZM119.74 111.571H122.738V105.232C122.738 103.391 122.481 101.399 122.332 99.7072H122.439L124.045 103.091L128.628 111.571H131.861V95.7239H128.842V102.041C128.842 103.84 129.099 105.96 129.27 107.609H129.163L127.557 104.183L122.953 95.7239H119.74V111.571ZM135.781 111.571H138.779V105.232C138.779 103.391 138.522 101.399 138.372 99.7072H138.479L140.085 103.091L144.668 111.571H147.902V95.7239H144.882V102.041C144.882 103.84 145.139 105.96 145.311 107.609H145.204L143.597 104.183L138.993 95.7239H135.781V111.571ZM151.822 111.571H161.78V108.916H154.991V104.697H160.538V102.02H154.991V98.358H161.544V95.7239H151.822V111.571ZM164.997 111.571H168.166V105.596H170.501C173.82 105.596 176.454 104.054 176.454 100.521C176.454 96.8803 173.82 95.7239 170.501 95.7239H164.997V111.571ZM168.166 103.091V98.2509H170.201C172.257 98.2509 173.37 98.8291 173.37 100.521C173.37 102.213 172.257 103.091 170.201 103.091H168.166ZM173.606 111.571H177.14L172.128 102.791L169.923 104.783L173.606 111.571Z" fill="white"/>
</svg>
