<svg width="208" height="69" viewBox="0 0 208 69" fill="none" xmlns="http://www.w3.org/2000/svg">
<path d="M2.52841 39V9.90909H8.67898V22.7358H9.0625L19.5312 9.90909H26.9034L16.108 22.9347L27.0312 39H19.6733L11.7045 27.0398L8.67898 30.733V39H2.52841ZM28.402 9.90909H35.2912L41.9247 22.4375H42.2088L48.8423 9.90909H55.7315L45.1207 28.7159V39H39.0128V28.7159L28.402 9.90909ZM59.0909 39V9.90909H65.2415V33.929H77.7131V39H59.0909ZM87.9368 9.90909V39H81.7862V9.90909H87.9368ZM92.9972 39V9.90909H112.599V14.9801H99.1477V21.9119H111.591V26.983H99.1477V33.929H112.656V39H92.9972Z" fill="#E1B0C2"/>
<path d="M134.432 17.1818C134.261 15.7424 133.57 14.625 132.358 13.8295C131.146 13.0341 129.659 12.6364 127.898 12.6364C126.61 12.6364 125.483 12.8447 124.517 13.2614C123.561 13.678 122.813 14.2509 122.273 14.9801C121.742 15.7093 121.477 16.5379 121.477 17.4659C121.477 18.2424 121.662 18.91 122.031 19.4688C122.41 20.018 122.893 20.4773 123.48 20.8466C124.067 21.2064 124.683 21.5047 125.327 21.7415C125.971 21.9687 126.562 22.1534 127.102 22.2955L130.057 23.0909C130.814 23.2898 131.657 23.5644 132.585 23.9148C133.523 24.2652 134.418 24.7434 135.27 25.3494C136.132 25.946 136.842 26.7131 137.401 27.6506C137.959 28.5881 138.239 29.7386 138.239 31.1023C138.239 32.6742 137.827 34.0947 137.003 35.3636C136.188 36.6326 134.995 37.6411 133.423 38.3892C131.861 39.1373 129.962 39.5114 127.727 39.5114C125.644 39.5114 123.84 39.1752 122.315 38.5028C120.8 37.8305 119.607 36.893 118.736 35.6903C117.874 34.4877 117.386 33.0909 117.273 31.5H120.909C121.004 32.5985 121.373 33.5076 122.017 34.2273C122.67 34.9375 123.494 35.4678 124.489 35.8182C125.492 36.1591 126.572 36.3295 127.727 36.3295C129.072 36.3295 130.279 36.1117 131.349 35.6761C132.42 35.2311 133.267 34.6155 133.892 33.8295C134.517 33.0341 134.83 32.1061 134.83 31.0455C134.83 30.0795 134.56 29.2936 134.02 28.6875C133.48 28.0814 132.77 27.589 131.889 27.2102C131.009 26.8314 130.057 26.5 129.034 26.2159L125.455 25.1932C123.182 24.5398 121.383 23.607 120.057 22.3949C118.731 21.1828 118.068 19.5966 118.068 17.6364C118.068 16.0076 118.509 14.5871 119.389 13.375C120.279 12.1534 121.473 11.2064 122.969 10.5341C124.474 9.85227 126.155 9.51136 128.011 9.51136C129.886 9.51136 131.553 9.84754 133.011 10.5199C134.47 11.1828 135.625 12.0919 136.477 13.2472C137.339 14.4025 137.794 15.714 137.841 17.1818H134.432ZM144.031 39V9.90909H147.553V24.3409H147.894L160.962 9.90909H165.565L153.349 23.0341L165.565 39H161.303L151.19 25.4773L147.553 29.5682V39H144.031ZM173.647 9.90909V39H170.124V9.90909H173.647ZM203.778 9.90909V39H200.369L184.517 16.1591H184.233V39H180.71V9.90909H184.119L200.028 32.8068H200.312V9.90909H203.778Z" fill="#E1B0C2"/>
<path d="M24.484 64H27.508C29.804 64 31.316 62.992 31.316 61.018C31.316 59.618 30.448 58.792 29.132 58.568V58.498C30.154 58.19 30.7 57.322 30.7 56.272C30.7 54.55 29.356 53.794 27.298 53.794H24.484V64ZM25.324 58.246V54.48H27.116C28.922 54.48 29.86 54.984 29.86 56.37C29.86 57.532 29.048 58.246 27.032 58.246H25.324ZM25.324 63.3V58.918H27.312C29.342 58.918 30.49 59.59 30.49 61.018C30.49 62.6 29.286 63.3 27.312 63.3H25.324ZM37.8387 64H38.6787V59.898L41.7447 53.794H40.8767L39.3787 56.916C39.0567 57.658 38.6787 58.372 38.2867 59.128H38.2307C37.8527 58.372 37.5307 57.658 37.1667 56.916L35.6687 53.794H34.7727L37.8387 59.898V64ZM58.2831 64H59.1231V60.556L61.1251 58.246L64.4291 64H65.3951L61.6851 57.588L64.9331 53.794H63.9391L59.1511 59.338H59.1231V53.794H58.2831V64ZM71.378 64H72.218V59.898L75.284 53.794H74.416L72.918 56.916C72.596 57.658 72.218 58.372 71.826 59.128H71.77C71.392 58.372 71.07 57.658 70.706 56.916L69.208 53.794H68.312L71.378 59.898V64ZM79.7353 64H85.2233V63.272H80.5753V53.794H79.7353V64ZM89.9898 64H90.8298V53.794H89.9898V64ZM96.7442 64H102.54V63.272H97.5842V58.946H101.63V58.232H97.5842V54.508H102.386V53.794H96.7442V64ZM121.491 64.182C123.381 64.182 124.095 62.852 124.095 61.172V53.794H123.255V61.088C123.255 62.726 122.667 63.426 121.463 63.426C120.623 63.426 120.035 63.09 119.531 62.236L118.901 62.656C119.447 63.65 120.315 64.182 121.491 64.182ZM129.969 64H135.765V63.272H130.809V58.946H134.855V58.232H130.809V54.508H135.611V53.794H129.969V64ZM140.934 64H141.732V57.882C141.732 56.86 141.662 55.908 141.62 54.928H141.69L142.838 56.972L146.996 64H147.864V53.794H147.066V59.842C147.066 60.836 147.122 61.858 147.178 62.866H147.108L145.974 60.808L141.802 53.794H140.934V64ZM153.773 64H154.571V57.882C154.571 56.86 154.501 55.908 154.459 54.928H154.529L155.677 56.972L159.835 64H160.703V53.794H159.905V59.842C159.905 60.836 159.961 61.858 160.017 62.866H159.947L158.813 60.808L154.641 53.794H153.773V64ZM166.611 64H172.407V63.272H167.451V58.946H171.497V58.232H167.451V54.508H172.253V53.794H166.611V64ZM178.417 54.494H180.363C182.127 54.494 183.107 55.04 183.107 56.524C183.107 57.994 182.127 58.694 180.363 58.694H178.417V54.494ZM184.171 64L181.413 59.324C182.967 59.086 183.961 58.148 183.961 56.524C183.961 54.536 182.589 53.794 180.559 53.794H177.577V64H178.417V59.394H180.503L183.219 64H184.171Z" fill="#E1B0C2"/>
</svg>
